<?xml version="1.0" standalone="no"?>
<!DOCTYPE svg PUBLIC "-//W3C//DTD SVG 20010904//EN"
 "http://www.w3.org/TR/2001/REC-SVG-20010904/DTD/svg10.dtd">
<svg version="1.0" xmlns="http://www.w3.org/2000/svg"
 width="25.000000pt" height="25.000000pt" viewBox="0 0 25.000000 25.000000"
 preserveAspectRatio="xMidYMid meet">

<g transform="translate(0.000000,25.000000) scale(0.100000,-0.100000)"
fill="#000000" stroke="none">
<path d="M0 125 l0 -76 56 3 c62 3 84 21 69 54 -5 11 -9 35 -9 54 l-1 35 -57
3 -58 3 0 -76z m88 33 c3 -14 -3 -18 -27 -18 -29 0 -41 17 -24 34 13 13 48 1
51 -16z m1 -47 c21 -13 5 -41 -23 -41 -28 0 -40 14 -32 35 6 17 34 19 55 6z"/>
<path d="M178 183 c12 -2 30 -2 40 0 9 3 -1 5 -23 4 -22 0 -30 -2 -17 -4z"/>
<path d="M152 148 c-17 -17 -15 -73 2 -87 18 -15 78 -10 84 7 3 8 -6 12 -29
10 -18 -2 -34 2 -36 10 -3 8 8 12 36 12 42 0 48 8 31 41 -12 22 -68 27 -88 7z
m63 -18 c4 -6 -5 -10 -20 -10 -15 0 -24 4 -20 10 3 6 12 10 20 10 8 0 17 -4
20 -10z"/>
</g>
</svg>
