<?xml version="1.0" standalone="no"?>
<!DOCTYPE svg PUBLIC "-//W3C//DTD SVG 20010904//EN"
 "http://www.w3.org/TR/2001/REC-SVG-20010904/DTD/svg10.dtd">
<svg version="1.0" xmlns="http://www.w3.org/2000/svg"
 width="25.000000pt" height="25.000000pt" viewBox="0 0 25.000000 25.000000"
 preserveAspectRatio="xMidYMid meet">

<g transform="translate(0.000000,25.000000) scale(0.100000,-0.100000)"
fill="#000000" stroke="none">
<path d="M43 230 c-27 -11 -37 -58 -31 -137 6 -73 20 -83 119 -83 98 0 109 11
109 115 0 99 -9 109 -102 112 -40 2 -83 -1 -95 -7z m158 -20 c16 -9 19 -22 19
-83 0 -44 -5 -78 -12 -85 -16 -16 -150 -16 -166 0 -18 18 -16 143 4 162 18 19
124 22 155 6z"/>
<path d="M177 194 c-8 -8 1 -24 14 -24 5 0 9 7 9 15 0 15 -12 20 -23 9z"/>
<path d="M86 164 c-46 -45 15 -125 68 -90 29 18 37 47 22 78 -15 29 -66 36
-90 12z m72 -33 c5 -32 -23 -54 -49 -40 -19 10 -26 49 -12 63 4 4 19 6 33 4
18 -2 26 -10 28 -27z"/>
</g>
</svg>
